<?xml version="1.0" encoding="utf-8"?>
<!-- Generator: Adobe Illustrator 19.2.1, SVG Export Plug-In . SVG Version: 6.00 Build 0)  -->
<svg version="1.1" id="layer" xmlns="http://www.w3.org/2000/svg" xmlns:xlink="http://www.w3.org/1999/xlink" x="0px" y="0px"
	 viewBox="0 0 652 652" style="enable-background:new 0 0 652 652;" xml:space="preserve">
<style type="text/css">
	.st0{fill:none;}
	.st1{fill:#FFD300;}
	.st2{fill:#99BFBC;}
	.st3{fill:#0F3C6C;}
	.st4{fill:#EF4931;}
</style>
<path class="st0" d="M367.3,310.5c0-4.8-3.2-7.7-8.5-7.7h-8.7V318h8.7C364.1,318,367.3,315.2,367.3,310.5L367.3,310.5z M291.5,306.2
	l-7.1,19h14.2L291.5,306.2z"/>
<path class="st1" d="M78.9,321.7l-15.6,15.6v-32.5H36.5c-9,0-16.2,7.3-16.2,16.2v0c0,9,7.3,16.2,16.2,16.2h26.8L78.9,321.7
	L78.9,321.7z"/>
<path class="st2" d="M78.9,321.7l16.9-16.9v32.5h26.8c9,0,16.2-7.3,16.2-16.2c0-9-7.3-16.2-16.2-16.2l0,0H95.8L78.9,321.7
	L78.9,321.7z"/>
<path class="st3" d="M95.7,364v-59.3l-16.9,16.9l-15.6,15.6V364c0,9,7.3,16.2,16.2,16.2S95.7,373,95.7,364L95.7,364z"/>
<path class="st4" d="M78.9,321.7l16.9-16.9V278c0-9-7.3-16.2-16.2-16.2S63.3,269,63.3,278v59.3L78.9,321.7L78.9,321.7z"/>
<path class="st3" d="M470,293.2H461c-0.4,0-0.8,0.4-0.8,0.8c0,0,0,0,0,0v35.2c0,12.6,8.2,20.8,20.9,20.8c12.8,0,21-8.2,21-20.8V294
	c0-0.4-0.4-0.8-0.8-0.8c0,0,0,0,0,0h-9.2c-0.4,0-0.8,0.4-0.8,0.8c0,0,0,0,0,0v34.7c0,7.1-3.6,11-10.3,11c-6.5,0-10.3-4-10.3-11V294
	C470.8,293.5,470.5,293.2,470,293.2L470,293.2L470,293.2z M619.5,293.2h-33.4c-0.4,0-0.8,0.3-0.8,0.8c0,0,0,0,0,0v54.1
	c0,0.4,0.4,0.8,0.8,0.8h33.4c0.4,0,0.8-0.4,0.8-0.8v-8.5c0-0.4-0.4-0.8-0.8-0.8l0,0H596V326h21.2c0.4,0,0.8-0.4,0.8-0.8v-8.3
	c0-0.4-0.4-0.8-0.8-0.8l0,0H596v-12.7h23.5c0.4,0,0.8-0.4,0.8-0.8V294C620.2,293.5,619.9,293.2,619.5,293.2L619.5,293.2z
	 M417.9,340.2c-7.8,0-11.1-5.4-11.6-10.1c0-0.2-0.1-0.4-0.3-0.6c-0.2-0.1-0.4-0.2-0.7-0.1l-8.5,2.4c-0.4,0.1-0.6,0.5-0.6,0.9
	c0.9,8.6,8,17.3,21.7,17.3c13.1,0,19.9-8.7,19.9-17.2c0-8.3-5.7-14.4-15.3-16.3l-7.8-1.6c-3.7-0.8-5.7-3-5.7-6.2c0-3.9,3.7-7,8.5-7
	c6.3,0,9.3,4.1,9.8,7.6c0.1,0.4,0.5,0.7,0.9,0.7c0,0,0.1,0,0.1,0l8.2-2.6c0.4-0.1,0.6-0.5,0.5-0.9c-0.7-3.4-4.1-14.4-19.7-14.4
	c-10.6,0-19.2,7.8-19.2,17.3c0,8.2,5.4,14.1,14.4,16l7.6,1.6c4.1,0.9,6.6,3.3,6.6,6.5C426.9,337.6,423.4,340.2,417.9,340.2
	L417.9,340.2z M538,293.2h-9.2c-0.4,0-0.8,0.4-0.8,0.8v54.1c0,0.4,0.4,0.8,0.8,0.8h33.9c0.4,0,0.8-0.4,0.8-0.8v-8.7
	c0-0.4-0.4-0.8-0.8-0.8l0,0h-24V294C538.8,293.5,538.5,293.2,538,293.2C538,293.2,538,293.2,538,293.2z M223.4,302.2
	c7.8,0,13.2,4.1,14.9,11.2c0.1,0.4,0.5,0.7,1,0.6c0,0,0,0,0,0l8.6-2.9c0.4-0.1,0.6-0.5,0.5-0.9c-3.5-13.4-15.2-18.1-25.1-18.1
	c-7.3,0-14.2,2.7-19.4,7.7c-5.6,5.4-8.6,12.8-8.6,21.3c0,19,14.1,28.9,28.1,28.9c15,0,23-10,25.2-18.5c0.1-0.4-0.1-0.8-0.5-1
	l-8.4-2.7c-0.4-0.1-0.9,0.1-1,0.5c0,0,0,0,0,0c-0.8,2.7-4.3,11.3-15.3,11.3c-8.3,0-17.1-5.8-17.1-18.6
	C206.3,308.2,215.2,302.3,223.4,302.2L223.4,302.2z M275,348.8c0.3,0,0.6-0.2,0.7-0.5l4.8-13.1h21.8l4.9,13.1
	c0.1,0.3,0.4,0.5,0.7,0.5h10c0.4,0,0.8-0.4,0.8-0.8c0-0.2,0-0.3-0.1-0.4l-21-53.9c-0.1-0.3-0.4-0.5-0.7-0.5h-10.6
	c-0.3,0-0.6,0.2-0.7,0.5l-21,54.1c-0.2,0.4,0,0.9,0.5,1c0.1,0,0.2,0.1,0.3,0.1L275,348.8L275,348.8z M291.5,306.2l7.1,19h-14.2
	L291.5,306.2L291.5,306.2z M349.3,348.8c0.4,0,0.8-0.4,0.8-0.8v-20.3h10.1c10.6,0,18-7.1,18-17.3c0-10.2-7.4-17.3-18-17.3h-20.1
	c-0.4,0-0.8,0.4-0.8,0.8V348c0,0.4,0.4,0.8,0.8,0.8H349.3L349.3,348.8z M350.1,302.9h8.7c5.3,0,8.5,2.9,8.5,7.7
	c0,4.7-3.2,7.5-8.5,7.5h-8.7V302.9z"/>
</svg>
